# xmcd CD database file
#
# Track frame offsets:
#	150
#	18583
#	37158
#	60406
#	75803
#	94895
#	113741
#	132755
#	149280
#	160250
#	176371
#	194096
#	210916
#	229192
#	254084
#
# Disc length: 3618 seconds
#
# Revision: 0
# Processed by: cddbd v1.5.2PL0 Copyright (c) Steve Scherf et al.
# Submitted via: CDex 1.70beta2
#
DISCID=c90e200f
DTITLE=Tom Wurth - Tom Wurth
DYEAR=2006
DGENRE=Country
TTITLE0=Leaving Lonely Behind
TTITLE1=If the Road Runs Out
TTITLE2=Is this Lonlely
TTITLE3=Bread on the Table
TTITLE4=Make Time for Lovin' You
TTITLE5=She's Still There
TTITLE6=Good Ground
TTITLE7=I Can Bend
TTITLE8=Love Made Me Do It
TTITLE9=Give It to Me Straight
TTITLE10=Bad Case of Missing You
TTITLE11=Evertime I Close My Eyes
TTITLE12=It Ain't What You're Thinkin'
TTITLE13=Higher Ground
TTITLE14=Bonus Track: I'm So Lonesome I Could Cry
EXTD=YEAR: 2006
EXTT0=
EXTT1=
EXTT2=
EXTT3=
EXTT4=
EXTT5=
EXTT6=
EXTT7=
EXTT8=
EXTT9=
EXTT10=
EXTT11=
EXTT12=
EXTT13=
EXTT14=
PLAYORDER=
